<?xml version="1.0" standalone="no"?>
<!DOCTYPE svg PUBLIC "-//W3C//DTD SVG 20010904//EN"
 "http://www.w3.org/TR/2001/REC-SVG-20010904/DTD/svg10.dtd">
<svg version="1.0" xmlns="http://www.w3.org/2000/svg"
 width="192.000000pt" height="192.000000pt" viewBox="0 0 192.000000 192.000000"
 preserveAspectRatio="xMidYMid meet">
<metadata>
Created by potrace 1.16, written by Peter Selinger 2001-2019
</metadata>
<g transform="translate(0.000000,192.000000) scale(0.100000,-0.100000)"
fill="#000000" stroke="none">
<path d="M695 1895 c-14 -13 -25 -29 -25 -35 0 -6 -35 -10 -92 -10 -51 0 -109
-5 -128 -10 -62 -17 -132 -80 -167 -149 -32 -61 -33 -66 -33 -186 l0 -122 -51
-5 c-42 -4 -57 -12 -87 -42 -35 -35 -37 -39 -37 -105 0 -60 3 -73 25 -96 41
-45 78 -55 205 -55 157 0 204 22 236 112 25 73 -30 169 -107 184 l-36 7 4 107
c3 99 5 109 32 144 37 49 79 66 166 66 l70 0 0 -275 c0 -333 -1 -332 115 -157
36 55 53 72 71 72 29 0 38 -10 103 -108 35 -54 60 -82 72 -82 18 0 19 13 19
275 l0 275 260 0 c292 0 308 -3 356 -66 l29 -37 3 -651 c3 -705 3 -703 -51
-754 -40 -38 -94 -42 -597 -42 -492 0 -556 5 -594 38 -27 24 -56 91 -56 132
l0 35 -75 -3 -75 -4 0 -61 c0 -106 63 -206 163 -259 l42 -23 595 0 595 0 42
23 c59 31 111 86 139 146 l24 51 0 702 0 701 -33 63 c-35 69 -105 132 -167
149 -19 5 -162 10 -317 10 -190 0 -283 3 -283 10 0 6 -11 22 -25 35 -23 24
-29 25 -165 25 -136 0 -142 -1 -165 -25z"/>
<path d="M250 871 l0 -128 -51 -5 c-42 -4 -57 -12 -87 -42 -35 -35 -37 -39
-37 -105 0 -60 3 -73 25 -96 45 -49 69 -55 205 -55 164 0 208 21 236 113 24
73 -32 169 -106 183 l-35 6 0 129 0 129 -75 0 -75 0 0 -129z"/>
</g>
</svg>
